<?xml version="1.0" standalone="no"?>
<!DOCTYPE svg PUBLIC "-//W3C//DTD SVG 20010904//EN"
 "http://www.w3.org/TR/2001/REC-SVG-20010904/DTD/svg10.dtd">
<svg version="1.0" xmlns="http://www.w3.org/2000/svg"
 width="271.000000pt" height="271.000000pt" viewBox="0 0 271.000000 271.000000"
 preserveAspectRatio="xMidYMid meet">
<metadata>
Created by potrace 1.11, written by Peter Selinger 2001-2013
</metadata>
<g transform="translate(0.000000,271.000000) scale(0.100000,-0.100000)"
fill="#000000" stroke="none">
<path d="M565 2053 c-96 -9 -221 -35 -237 -50 -10 -9 -23 -33 -28 -53 -8 -31
-16 -39 -48 -48 -57 -17 -97 -64 -98 -116 -1 -24 -7 -88 -14 -144 l-13 -100
-33 -6 c-39 -8 -42 -15 -36 -94 4 -61 6 -63 34 -69 l30 -6 -7 -71 c-5 -58 -11
-75 -31 -91 l-24 -20 36 -39 c62 -65 222 -121 366 -128 57 -3 68 -6 68 -21 0
-27 35 -89 67 -119 97 -93 268 -73 343 40 17 25 30 50 30 55 0 9 717 2 932 -8
75 -4 79 -5 110 -41 18 -20 51 -45 73 -55 51 -23 145 -25 188 -3 47 24 105 83
117 119 9 28 19 34 95 59 56 18 85 32 85 42 0 8 12 26 27 40 15 14 28 32 29
40 1 9 5 18 8 21 10 10 -14 43 -31 43 -14 0 -13 3 4 22 35 38 38 83 12 149
-28 71 -28 71 -236 96 l-143 18 0 32 c0 18 -4 33 -10 33 -5 0 -12 11 -16 25
-6 26 -12 29 -38 19 -12 -4 -16 -20 -16 -56 0 -42 -3 -49 -17 -44 -10 3 -77
10 -149 16 l-132 11 -44 42 c-24 23 -59 64 -78 91 -18 27 -59 80 -92 117 -32
37 -58 72 -58 78 0 15 -61 49 -100 55 -19 3 -116 8 -215 11 -186 7 -195 9
-195 52 0 12 -12 31 -26 42 -25 20 -38 21 -238 19 -116 -1 -229 -3 -251 -5z
m854 -246 c35 -2 66 -10 70 -16 4 -6 7 -62 7 -124 l-1 -112 -110 -3 c-60 -2
-147 -1 -193 3 l-83 7 4 114 c3 63 10 121 16 128 11 13 126 15 290 3z m147
-94 c4 -16 15 -35 26 -44 10 -9 18 -21 18 -28 0 -6 5 -11 10 -11 6 0 10 -7 10
-15 0 -8 5 -15 10 -15 6 0 10 -6 10 -13 0 -19 -65 -20 -80 -2 -7 8 -16 12 -21
9 -5 -3 -9 29 -9 70 0 76 13 101 26 49z"/>
</g>
</svg>
